<svg xmlns="http://www.w3.org/2000/svg" width="1280" height="720" viewBox="0 0 1280 720">
  <rect width="640" height="720" fill="#171125"/><rect x="640" width="640" height="720" fill="#071d2b"/>
  <path d="M640 0V720" stroke="#ffffff" stroke-width="8" opacity=".7"/>
  <g fill="#bbc4e8" opacity=".8">
    <circle cx="90" cy="100" r="3"/><circle cx="185" cy="235" r="4"/><circle cx="295" cy="85" r="2"/>
    <circle cx="400" cy="210" r="3"/><circle cx="520" cy="125" r="4"/><circle cx="565" cy="330" r="2"/>
  </g>
  <g stroke="#e24a4a" stroke-width="7" fill="none" opacity=".8">
    <path d="M95 420 C250 280 380 570 555 365"/><path d="M490 355l70 5-18 66"/>
  </g>
  <g fill="#cceaff">
    <circle cx="750" cy="115" r="3"/><circle cx="890" cy="220" r="3"/><circle cx="1040" cy="105" r="4"/>
    <circle cx="1170" cy="260" r="3"/><circle cx="1115" cy="405" r="2"/>
  </g>
  <circle cx="1040" cy="105" r="12" fill="#fff3a1"/>
  <g stroke="#54d2d2" fill="none" stroke-width="6">
    <path d="M700 500 Q940 170 1190 420"/><path d="M1040 125L930 520" stroke-dasharray="14 12"/>
  </g>
  <g fill="#02080d">
    <path d="M0 590 Q320 550 640 590 V720H0Z"/><path d="M640 590 Q960 550 1280 590 V720H640Z"/>
    <path d="M230 570h190l-45 55H275Z"/><path d="M850 570h190l-45 55H895Z"/>
  </g>
  <text x="85" y="675" fill="#ff6868" font-family="Arial, sans-serif" font-size="82" font-weight="800">LOST</text>
  <text x="785" y="675" fill="#63e6be" font-family="Arial, sans-serif" font-size="82" font-weight="800">FOUND</text>
</svg>
